<svg width="256" height="256" viewBox="0 0 256 256" xmlns="http://www.w3.org/2000/svg">
  <defs>
    <!-- Tech gradient backgrounds -->
    <radialGradient id="bgGradient" cx="50%" cy="30%" r="70%">
      <stop offset="0%" style="stop-color:#0f0f23;stop-opacity:1" />
      <stop offset="50%" style="stop-color:#1a1a2e;stop-opacity:1" />
      <stop offset="100%" style="stop-color:#16213e;stop-opacity:1" />
    </radialGradient>
    
    <linearGradient id="folderGradient" x1="0%" y1="0%" x2="100%" y2="100%">
      <stop offset="0%" style="stop-color:#00d4ff;stop-opacity:1" />
      <stop offset="50%" style="stop-color:#7209b7;stop-opacity:1" />
      <stop offset="100%" style="stop-color:#ff006e;stop-opacity:1" />
    </linearGradient>
    
    <linearGradient id="neonGlow" x1="0%" y1="0%" x2="100%" y2="100%">
      <stop offset="0%" style="stop-color:#00d4ff;stop-opacity:1" />
      <stop offset="100%" style="stop-color:#ffffff;stop-opacity:1" />
    </linearGradient>
    
    <linearGradient id="lightningGradient" x1="0%" y1="0%" x2="100%" y2="100%">
      <stop offset="0%" style="stop-color:#ffff00;stop-opacity:1" />
      <stop offset="50%" style="stop-color:#00d4ff;stop-opacity:1" />
      <stop offset="100%" style="stop-color:#ffffff;stop-opacity:1" />
    </linearGradient>
    
    <!-- Glow effect filter -->
    <filter id="glow" x="-50%" y="-50%" width="200%" height="200%">
      <feGaussianBlur stdDeviation="4" result="coloredBlur"/>
      <feMerge>
        <feMergeNode in="coloredBlur"/>
        <feMergeNode in="SourceGraphic"/>
      </feMerge>
    </filter>
    
    <!-- Drop shadow filter -->
    <filter id="dropshadow" x="-50%" y="-50%" width="200%" height="200%">
      <feGaussianBlur in="SourceAlpha" stdDeviation="3"/>
      <feOffset dx="2" dy="4" result="offset"/>
      <feComponentTransfer>
        <feFuncA type="linear" slope="0.4"/>
      </feComponentTransfer>
      <feMerge> 
        <feMergeNode/>
        <feMergeNode in="SourceGraphic"/> 
      </feMerge>
    </filter>
  </defs>
  
  <!-- Background circle with tech glow -->
  <circle cx="128" cy="128" r="120" fill="url(#bgGradient)" stroke="#00d4ff" stroke-width="2" filter="url(#glow)"/>
  
  <!-- Outer tech ring -->
  <circle cx="128" cy="128" r="110" fill="none" stroke="#00d4ff" stroke-width="1" opacity="0.3"/>
  <circle cx="128" cy="128" r="100" fill="none" stroke="#7209b7" stroke-width="1" opacity="0.2"/>
  
  <!-- Main folder with tech styling -->
  <g filter="url(#dropshadow)">
    <!-- Folder back -->
    <path d="M60 90 L60 190 A8 8 0 0 0 68 198 L188 198 A8 8 0 0 0 196 190 L196 90 A8 8 0 0 0 188 82 L68 82 A8 8 0 0 0 60 90 Z" 
          fill="url(#folderGradient)" stroke="#00d4ff" stroke-width="2"/>
    
    <!-- Folder tab -->
    <path d="M60 90 L60 82 A8 8 0 0 1 68 74 L110 74 L120 82 L140 82 A8 8 0 0 1 148 90 L148 98 L60 98 Z" 
          fill="url(#folderGradient)" stroke="#00d4ff" stroke-width="2"/>
    
    <!-- Tech lines on folder -->
    <line x1="80" y1="120" x2="176" y2="120" stroke="#00d4ff" stroke-width="2" opacity="0.7"/>
    <line x1="80" y1="140" x2="160" y2="140" stroke="#7209b7" stroke-width="2" opacity="0.7"/>
    <line x1="80" y1="160" x2="140" y2="160" stroke="#ff006e" stroke-width="2" opacity="0.7"/>
  </g>
  
  <!-- Tech elements around folder -->
  <g fill="url(#neonGlow)" filter="url(#glow)">
    <!-- Circuit-like elements -->
    <g transform="translate(180,60)">
      <rect x="-4" y="-4" width="8" height="8" rx="1"/>
      <circle cx="0" cy="0" r="2"/>
    </g>
    
    <g transform="translate(70,50)">
      <rect x="-3" y="-3" width="6" height="6" rx="1"/>
      <circle cx="0" cy="0" r="1.5"/>
    </g>
    
    <g transform="translate(190,170)">
      <rect x="-2" y="-2" width="4" height="4" rx="0.5"/>
      <circle cx="0" cy="0" r="1"/>
    </g>
    
    <g transform="translate(50,180)">
      <rect x="-2" y="-2" width="4" height="4" rx="0.5"/>
    </g>
  </g>
  
  <!-- Lightning bolt in center (replacing heart) -->
  <g transform="translate(128,140)" filter="url(#glow)">
    <path d="M-6,-10 L4,-2 L-2,-2 L6,10 L-4,2 L2,2 Z" 
          fill="url(#lightningGradient)" stroke="#ffffff" stroke-width="1"/>
  </g>
  
  <!-- Tech accent dots -->
  <circle cx="40" cy="120" r="2" fill="#00d4ff" opacity="0.8"/>
  <circle cx="216" cy="140" r="3" fill="#7209b7" opacity="0.6"/>
  <circle cx="45" cy="200" r="1.5" fill="#ff006e" opacity="0.9"/>
  <circle cx="200" cy="80" r="2" fill="#00d4ff" opacity="0.7"/>
  
  <!-- Data flow lines -->
  <g stroke="#00d4ff" stroke-width="1" fill="none" opacity="0.4">
    <path d="M30,30 Q50,20 70,40"/>
    <path d="M186,30 Q206,20 226,40"/>
    <path d="M30,226 Q50,236 70,216"/>
    <path d="M186,226 Q206,236 226,216"/>
  </g>
</svg>